<svg xmlns="http://www.w3.org/2000/svg" style="display:none" aria-hidden="true">
<symbol id="ph-arrow-clockwise" viewBox="0 0 256 256"><path d="M240,56v48a8,8,0,0,1-8,8H184a8,8,0,0,1,0-16H211.4L184.81,71.64l-.25-.24a80,80,0,1,0-1.67,114.78,8,8,0,0,1,11,11.63A95.44,95.44,0,0,1,128,224h-1.32A96,96,0,1,1,195.75,60L224,85.8V56a8,8,0,1,1,16,0Z"/></symbol>
<symbol id="ph-broadcast" viewBox="0 0 256 256"><path d="M128,88a40,40,0,1,0,40,40A40,40,0,0,0,128,88Zm0,64a24,24,0,1,1,24-24A24,24,0,0,1,128,152Zm73.71,7.14a80,80,0,0,1-14.08,22.2,8,8,0,0,1-11.92-10.67,63.95,63.95,0,0,0,0-85.33,8,8,0,1,1,11.92-10.67,80.08,80.08,0,0,1,14.08,84.47ZM69,103.09a64,64,0,0,0,11.26,67.58,8,8,0,0,1-11.92,10.67,79.93,79.93,0,0,1,0-106.67A8,8,0,1,1,80.29,85.34,63.77,63.77,0,0,0,69,103.09ZM248,128a119.58,119.58,0,0,1-34.29,84,8,8,0,1,1-11.42-11.2,103.9,103.9,0,0,0,0-145.56A8,8,0,1,1,213.71,44,119.58,119.58,0,0,1,248,128ZM53.71,200.78A8,8,0,1,1,42.29,212a119.87,119.87,0,0,1,0-168,8,8,0,1,1,11.42,11.2,103.9,103.9,0,0,0,0,145.56Z"/></symbol>
<symbol id="ph-chart-bar" viewBox="0 0 256 256"><path d="M224,200h-8V40a8,8,0,0,0-8-8H152a8,8,0,0,0-8,8V80H96a8,8,0,0,0-8,8v40H48a8,8,0,0,0-8,8v64H32a8,8,0,0,0,0,16H224a8,8,0,0,0,0-16ZM160,48h40V200H160ZM104,96h40V200H104ZM56,144H88v56H56Z"/></symbol>
<symbol id="ph-chat-circle" viewBox="0 0 256 256"><path d="M128,24A104,104,0,0,0,36.18,176.88L24.83,210.93a16,16,0,0,0,20.24,20.24l34.05-11.35A104,104,0,1,0,128,24Zm0,192a87.87,87.87,0,0,1-44.06-11.81,8,8,0,0,0-6.54-.67L40,216,52.47,178.6a8,8,0,0,0-.66-6.54A88,88,0,1,1,128,216Z"/></symbol>
<symbol id="ph-check" viewBox="0 0 256 256"><path d="M229.66,77.66l-128,128a8,8,0,0,1-11.32,0l-56-56a8,8,0,0,1,11.32-11.32L96,188.69,218.34,66.34a8,8,0,0,1,11.32,11.32Z"/></symbol>
<symbol id="ph-circle-fill" viewBox="0 0 256 256"><path d="M232,128A104,104,0,1,1,128,24,104.13,104.13,0,0,1,232,128Z"/></symbol>
<symbol id="ph-circle" viewBox="0 0 256 256"><path d="M128,24A104,104,0,1,0,232,128,104.11,104.11,0,0,0,128,24Zm0,192a88,88,0,1,1,88-88A88.1,88.1,0,0,1,128,216Z"/></symbol>
<symbol id="ph-cpu" viewBox="0 0 256 256"><path d="M152,96H104a8,8,0,0,0-8,8v48a8,8,0,0,0,8,8h48a8,8,0,0,0,8-8V104A8,8,0,0,0,152,96Zm-8,48H112V112h32Zm88,0H216V112h16a8,8,0,0,0,0-16H216V56a16,16,0,0,0-16-16H160V24a8,8,0,0,0-16,0V40H112V24a8,8,0,0,0-16,0V40H56A16,16,0,0,0,40,56V96H24a8,8,0,0,0,0,16H40v32H24a8,8,0,0,0,0,16H40v40a16,16,0,0,0,16,16H96v16a8,8,0,0,0,16,0V216h32v16a8,8,0,0,0,16,0V216h40a16,16,0,0,0,16-16V160h16a8,8,0,0,0,0-16Zm-32,56H56V56H200v95.87s0,.09,0,.13,0,.09,0,.13V200Z"/></symbol>
<symbol id="ph-diamond" viewBox="0 0 256 256"><path d="M235.33,116.72,139.28,20.66a16,16,0,0,0-22.56,0l-96,96.06a16,16,0,0,0,0,22.56l96.05,96.06h0a16,16,0,0,0,22.56,0l96.05-96.06a16,16,0,0,0,0-22.56ZM128,224h0L32,128,128,32,224,128Z"/></symbol>
<symbol id="ph-envelope-simple" viewBox="0 0 256 256"><path d="M224,48H32a8,8,0,0,0-8,8V192a16,16,0,0,0,16,16H216a16,16,0,0,0,16-16V56A8,8,0,0,0,224,48ZM203.43,64,128,133.15,52.57,64ZM216,192H40V74.19l82.59,75.71a8,8,0,0,0,10.82,0L216,74.19V192Z"/></symbol>
<symbol id="ph-eye" viewBox="0 0 256 256"><path d="M247.31,124.76c-.35-.79-8.82-19.58-27.65-38.41C194.57,61.26,162.88,48,128,48S61.43,61.26,36.34,86.35C17.51,105.18,9,124,8.69,124.76a8,8,0,0,0,0,6.5c.35.79,8.82,19.57,27.65,38.4C61.43,194.74,93.12,208,128,208s66.57-13.26,91.66-38.34c18.83-18.83,27.3-37.61,27.65-38.4A8,8,0,0,0,247.31,124.76ZM128,192c-30.78,0-57.67-11.19-79.93-33.25A133.47,133.47,0,0,1,25,128,133.33,133.33,0,0,1,48.07,97.25C70.33,75.19,97.22,64,128,64s57.67,11.19,79.93,33.25A133.46,133.46,0,0,1,231.05,128C223.84,141.46,192.43,192,128,192Zm0-112a48,48,0,1,0,48,48A48.05,48.05,0,0,0,128,80Zm0,80a32,32,0,1,1,32-32A32,32,0,0,1,128,160Z"/></symbol>
<symbol id="ph-hash" viewBox="0 0 256 256"><path d="M224,88H175.4l8.47-46.57a8,8,0,0,0-15.74-2.86l-9,49.43H111.4l8.47-46.57a8,8,0,0,0-15.74-2.86L95.14,88H48a8,8,0,0,0,0,16H92.23L83.5,152H32a8,8,0,0,0,0,16H80.6l-8.47,46.57a8,8,0,0,0,6.44,9.3A7.79,7.79,0,0,0,80,224a8,8,0,0,0,7.86-6.57l9-49.43H144.6l-8.47,46.57a8,8,0,0,0,6.44,9.3A7.79,7.79,0,0,0,144,224a8,8,0,0,0,7.86-6.57l9-49.43H208a8,8,0,0,0,0-16H163.77l8.73-48H224a8,8,0,0,0,0-16Zm-76.5,64H99.77l8.73-48h47.73Z"/></symbol>
<symbol id="ph-house" viewBox="0 0 256 256"><path d="M219.31,108.68l-80-80a16,16,0,0,0-22.62,0l-80,80A15.87,15.87,0,0,0,32,120v96a8,8,0,0,0,8,8h64a8,8,0,0,0,8-8V160h32v56a8,8,0,0,0,8,8h64a8,8,0,0,0,8-8V120A15.87,15.87,0,0,0,219.31,108.68ZM208,208H160V152a8,8,0,0,0-8-8H104a8,8,0,0,0-8,8v56H48V120l80-80,80,80Z"/></symbol>
<symbol id="ph-lightning" viewBox="0 0 256 256"><path d="M215.79,118.17a8,8,0,0,0-5-5.66L153.18,90.9l14.66-73.33a8,8,0,0,0-13.69-7l-112,120a8,8,0,0,0,3,13l57.63,21.61L88.16,238.43a8,8,0,0,0,13.69,7l112-120A8,8,0,0,0,215.79,118.17ZM109.37,214l10.47-52.38a8,8,0,0,0-5-9.06L62,132.71l84.62-90.66L136.16,94.43a8,8,0,0,0,5,9.06l52.8,19.8Z"/></symbol>
<symbol id="ph-list" viewBox="0 0 256 256"><path d="M224,128a8,8,0,0,1-8,8H40a8,8,0,0,1,0-16H216A8,8,0,0,1,224,128ZM40,72H216a8,8,0,0,0,0-16H40a8,8,0,0,0,0,16ZM216,184H40a8,8,0,0,0,0,16H216a8,8,0,0,0,0-16Z"/></symbol>
<symbol id="ph-lock" viewBox="0 0 256 256"><path d="M208,80H176V56a48,48,0,0,0-96,0V80H48A16,16,0,0,0,32,96V208a16,16,0,0,0,16,16H208a16,16,0,0,0,16-16V96A16,16,0,0,0,208,80ZM96,56a32,32,0,0,1,64,0V80H96ZM208,208H48V96H208V208Zm-68-56a12,12,0,1,1-12-12A12,12,0,0,1,140,152Z"/></symbol>
<symbol id="ph-magnifying-glass" viewBox="0 0 256 256"><path d="M229.66,218.34l-50.07-50.06a88.11,88.11,0,1,0-11.31,11.31l50.06,50.07a8,8,0,0,0,11.32-11.32ZM40,112a72,72,0,1,1,72,72A72.08,72.08,0,0,1,40,112Z"/></symbol>
<symbol id="ph-map-trifold" viewBox="0 0 256 256"><path d="M228.92,49.69a8,8,0,0,0-6.86-1.45L160.93,63.52,99.58,32.84a8,8,0,0,0-5.52-.6l-64,16A8,8,0,0,0,24,56V200a8,8,0,0,0,9.94,7.76l61.13-15.28,61.35,30.68A8.15,8.15,0,0,0,160,224a8,8,0,0,0,1.94-.24l64-16A8,8,0,0,0,232,200V56A8,8,0,0,0,228.92,49.69ZM104,52.94l48,24V203.06l-48-24ZM40,62.25l48-12v127.5l-48,12Zm176,131.5-48,12V78.25l48-12Z"/></symbol>
<symbol id="ph-megaphone" viewBox="0 0 256 256"><path d="M248,120a48.05,48.05,0,0,0-48-48H160.2c-2.91-.17-53.62-3.74-101.91-44.24A16,16,0,0,0,32,40V200a16,16,0,0,0,26.29,12.25c37.77-31.68,77-40.76,93.71-43.3v31.72A16,16,0,0,0,159.12,214l11,7.33A16,16,0,0,0,194.5,212l11.77-44.36A48.07,48.07,0,0,0,248,120ZM48,199.93V40h0c42.81,35.91,86.63,45,104,47.24v65.48C134.65,155,90.84,164.07,48,199.93Zm131,8,0,.11-11-7.33V168h21.6ZM200,152H168V88h32a32,32,0,1,1,0,64Z"/></symbol>
<symbol id="ph-monitor" viewBox="0 0 256 256"><path d="M208,40H48A24,24,0,0,0,24,64V176a24,24,0,0,0,24,24H208a24,24,0,0,0,24-24V64A24,24,0,0,0,208,40Zm8,136a8,8,0,0,1-8,8H48a8,8,0,0,1-8-8V64a8,8,0,0,1,8-8H208a8,8,0,0,1,8,8Zm-48,48a8,8,0,0,1-8,8H96a8,8,0,0,1,0-16h64A8,8,0,0,1,168,224Z"/></symbol>
<symbol id="ph-moon" viewBox="0 0 256 256"><path d="M233.54,142.23a8,8,0,0,0-8-2,88.08,88.08,0,0,1-109.8-109.8,8,8,0,0,0-10-10,104.84,104.84,0,0,0-52.91,37A104,104,0,0,0,136,224a103.09,103.09,0,0,0,62.52-20.88,104.84,104.84,0,0,0,37-52.91A8,8,0,0,0,233.54,142.23ZM188.9,190.34A88,88,0,0,1,65.66,67.11a89,89,0,0,1,31.4-26A106,106,0,0,0,96,56,104.11,104.11,0,0,0,200,160a106,106,0,0,0,14.92-1.06A89,89,0,0,1,188.9,190.34Z"/></symbol>
<symbol id="ph-music-note" viewBox="0 0 256 256"><path d="M210.3,56.34l-80-24A8,8,0,0,0,120,40V148.26A48,48,0,1,0,136,184V98.75l69.7,20.91A8,8,0,0,0,216,112V64A8,8,0,0,0,210.3,56.34ZM88,216a32,32,0,1,1,32-32A32,32,0,0,1,88,216ZM200,101.25l-64-19.2V50.75L200,70Z"/></symbol>
<symbol id="ph-package" viewBox="0 0 256 256"><path d="M223.68,66.15,135.68,18a15.88,15.88,0,0,0-15.36,0l-88,48.17a16,16,0,0,0-8.32,14v95.64a16,16,0,0,0,8.32,14l88,48.17a15.88,15.88,0,0,0,15.36,0l88-48.17a16,16,0,0,0,8.32-14V80.18A16,16,0,0,0,223.68,66.15ZM128,32l80.34,44-29.77,16.3-80.35-44ZM128,120,47.66,76l33.9-18.56,80.34,44ZM40,90l80,43.78v85.79L40,175.82Zm176,85.78h0l-80,43.79V133.82l32-17.51V152a8,8,0,0,0,16,0V107.55L216,90v85.77Z"/></symbol>
<symbol id="ph-palette" viewBox="0 0 256 256"><path d="M200.77,53.89A103.27,103.27,0,0,0,128,24h-1.07A104,104,0,0,0,24,128c0,43,26.58,79.06,69.36,94.17A32,32,0,0,0,136,192a16,16,0,0,1,16-16h46.21a31.81,31.81,0,0,0,31.2-24.88,104.43,104.43,0,0,0,2.59-24A103.28,103.28,0,0,0,200.77,53.89Zm13,93.71A15.89,15.89,0,0,1,198.21,160H152a32,32,0,0,0-32,32,16,16,0,0,1-21.31,15.07C62.49,194.3,40,164,40,128a88,88,0,0,1,87.09-88h.9a88.35,88.35,0,0,1,88,87.25A88.86,88.86,0,0,1,213.81,147.6ZM140,76a12,12,0,1,1-12-12A12,12,0,0,1,140,76ZM96,100A12,12,0,1,1,84,88,12,12,0,0,1,96,100Zm0,56a12,12,0,1,1-12-12A12,12,0,0,1,96,156Zm88-56a12,12,0,1,1-12-12A12,12,0,0,1,184,100Z"/></symbol>
<symbol id="ph-scales" viewBox="0 0 256 256"><path d="M239.43,133l-32-80h0a8,8,0,0,0-9.16-4.84L136,62V40a8,8,0,0,0-16,0V65.58L54.26,80.19A8,8,0,0,0,48.57,85h0v.06L16.57,165a7.92,7.92,0,0,0-.57,3c0,23.31,24.54,32,40,32s40-8.69,40-32a7.92,7.92,0,0,0-.57-3L66.92,93.77,120,82V208H104a8,8,0,0,0,0,16h48a8,8,0,0,0,0-16H136V78.42L187,67.1,160.57,133a7.92,7.92,0,0,0-.57,3c0,23.31,24.54,32,40,32s40-8.69,40-32A7.92,7.92,0,0,0,239.43,133ZM56,184c-7.53,0-22.76-3.61-23.93-14.64L56,109.54l23.93,59.82C78.76,180.39,63.53,184,56,184Zm144-32c-7.53,0-22.76-3.61-23.93-14.64L200,77.54l23.93,59.82C222.76,148.39,207.53,152,200,152Z"/></symbol>
<symbol id="ph-square-fill" viewBox="0 0 256 256"><path d="M224,48V208a16,16,0,0,1-16,16H48a16,16,0,0,1-16-16V48A16,16,0,0,1,48,32H208A16,16,0,0,1,224,48Z"/></symbol>
<symbol id="ph-square" viewBox="0 0 256 256"><path d="M208,32H48A16,16,0,0,0,32,48V208a16,16,0,0,0,16,16H208a16,16,0,0,0,16-16V48A16,16,0,0,0,208,32Zm0,176H48V48H208V208Z"/></symbol>
<symbol id="ph-star-fill" viewBox="0 0 256 256"><path d="M234.29,114.85l-45,38.83L203,211.75a16.4,16.4,0,0,1-24.5,17.82L128,198.49,77.47,229.57A16.4,16.4,0,0,1,53,211.75l13.76-58.07-45-38.83A16.46,16.46,0,0,1,31.08,86l59-4.76,22.76-55.08a16.36,16.36,0,0,1,30.27,0l22.75,55.08,59,4.76a16.46,16.46,0,0,1,9.37,28.86Z"/></symbol>
<symbol id="ph-star" viewBox="0 0 256 256"><path d="M239.18,97.26A16.38,16.38,0,0,0,224.92,86l-59-4.76L143.14,26.15a16.36,16.36,0,0,0-30.27,0L90.11,81.23,31.08,86a16.46,16.46,0,0,0-9.37,28.86l45,38.83L53,211.75a16.38,16.38,0,0,0,24.5,17.82L128,198.49l50.53,31.08A16.4,16.4,0,0,0,203,211.75l-13.76-58.07,45-38.83A16.43,16.43,0,0,0,239.18,97.26Zm-15.34,5.47-48.7,42a8,8,0,0,0-2.56,7.91l14.88,62.8a.37.37,0,0,1-.17.48c-.18.14-.23.11-.38,0l-54.72-33.65a8,8,0,0,0-8.38,0L69.09,215.94c-.15.09-.19.12-.38,0a.37.37,0,0,1-.17-.48l14.88-62.8a8,8,0,0,0-2.56-7.91l-48.7-42c-.12-.1-.23-.19-.13-.5s.18-.27.33-.29l63.92-5.16A8,8,0,0,0,103,91.86l24.62-59.61c.08-.17.11-.25.35-.25s.27.08.35.25L153,91.86a8,8,0,0,0,6.75,4.92l63.92,5.16c.15,0,.24,0,.33.29S224,102.63,223.84,102.73Z"/></symbol>
<symbol id="ph-sun" viewBox="0 0 256 256"><path d="M120,40V16a8,8,0,0,1,16,0V40a8,8,0,0,1-16,0Zm72,88a64,64,0,1,1-64-64A64.07,64.07,0,0,1,192,128Zm-16,0a48,48,0,1,0-48,48A48.05,48.05,0,0,0,176,128ZM58.34,69.66A8,8,0,0,0,69.66,58.34l-16-16A8,8,0,0,0,42.34,53.66Zm0,116.68-16,16a8,8,0,0,0,11.32,11.32l16-16a8,8,0,0,0-11.32-11.32ZM192,72a8,8,0,0,0,5.66-2.34l16-16a8,8,0,0,0-11.32-11.32l-16,16A8,8,0,0,0,192,72Zm5.66,114.34a8,8,0,0,0-11.32,11.32l16,16a8,8,0,0,0,11.32-11.32ZM48,128a8,8,0,0,0-8-8H16a8,8,0,0,0,0,16H40A8,8,0,0,0,48,128Zm80,80a8,8,0,0,0-8,8v24a8,8,0,0,0,16,0V216A8,8,0,0,0,128,208Zm112-88H216a8,8,0,0,0,0,16h24a8,8,0,0,0,0-16Z"/></symbol>
<symbol id="ph-triangle" viewBox="0 0 256 256"><path d="M236.8,188.09,149.35,36.22a24.76,24.76,0,0,0-42.7,0L19.2,188.09a23.51,23.51,0,0,0,0,23.72A24.34,24.34,0,0,0,40.55,224h174.9a24.34,24.34,0,0,0,21.33-12.19A23.51,23.51,0,0,0,236.8,188.09ZM222.93,203.8a8.5,8.5,0,0,1-7.48,4.2H40.55a8.5,8.5,0,0,1-7.48-4.2,7.59,7.59,0,0,1,0-7.72L120.52,44.21a8.75,8.75,0,0,1,15,0l87.45,151.87A7.59,7.59,0,0,1,222.93,203.8Z"/></symbol>
<symbol id="ph-warning" viewBox="0 0 256 256"><path d="M236.8,188.09,149.35,36.22h0a24.76,24.76,0,0,0-42.7,0L19.2,188.09a23.51,23.51,0,0,0,0,23.72A24.35,24.35,0,0,0,40.55,224h174.9a24.35,24.35,0,0,0,21.33-12.19A23.51,23.51,0,0,0,236.8,188.09ZM222.93,203.8a8.5,8.5,0,0,1-7.48,4.2H40.55a8.5,8.5,0,0,1-7.48-4.2,7.59,7.59,0,0,1,0-7.72L120.52,44.21a8.75,8.75,0,0,1,15,0l87.45,151.87A7.59,7.59,0,0,1,222.93,203.8ZM120,144V104a8,8,0,0,1,16,0v40a8,8,0,0,1-16,0Zm20,36a12,12,0,1,1-12-12A12,12,0,0,1,140,180Z"/></symbol>
<symbol id="ph-wrench" viewBox="0 0 256 256"><path d="M226.76,69a8,8,0,0,0-12.84-2.88l-40.3,37.19-17.23-3.7-3.7-17.23,37.19-40.3A8,8,0,0,0,187,29.24,72,72,0,0,0,88,96,72.34,72.34,0,0,0,94,124.94L33.79,177c-.15.12-.29.26-.43.39a32,32,0,0,0,45.26,45.26c.13-.13.27-.28.39-.42L131.06,162A72,72,0,0,0,232,96,71.56,71.56,0,0,0,226.76,69ZM160,152a56.14,56.14,0,0,1-27.07-7,8,8,0,0,0-9.92,1.77L67.11,211.51a16,16,0,0,1-22.62-22.62L109.18,133a8,8,0,0,0,1.77-9.93,56,56,0,0,1,58.36-82.31l-31.2,33.81a8,8,0,0,0-1.94,7.1L141.83,108a8,8,0,0,0,6.14,6.14l26.35,5.66a8,8,0,0,0,7.1-1.94l33.81-31.2A56.06,56.06,0,0,1,160,152Z"/></symbol>
<symbol id="ph-x" viewBox="0 0 256 256"><path d="M205.66,194.34a8,8,0,0,1-11.32,11.32L128,139.31,61.66,205.66a8,8,0,0,1-11.32-11.32L116.69,128,50.34,61.66A8,8,0,0,1,61.66,50.34L128,116.69l66.34-66.35a8,8,0,0,1,11.32,11.32L139.31,128Z"/></symbol>
</svg>